<?xml version="1.0" standalone="no"?>
<!DOCTYPE svg PUBLIC "-//W3C//DTD SVG 20010904//EN"
 "http://www.w3.org/TR/2001/REC-SVG-20010904/DTD/svg10.dtd">
<svg version="1.0" xmlns="http://www.w3.org/2000/svg"
 width="225.000000pt" height="225.000000pt" viewBox="0 0 225.000000 225.000000"
 preserveAspectRatio="xMidYMid meet">

<g transform="translate(0.000000,225.000000) scale(0.100000,-0.100000)"
fill="#000000" stroke="none">
<path d="M457 1127 l-147 -252 151 -3 c82 -1 214 -1 293 0 l142 3 -113 195
c-63 107 -128 221 -146 252 l-32 56 -148 -251z m226 61 c39 -20 46 -40 45
-126 0 -95 -15 -122 -68 -122 -16 0 -44 -9 -62 -20 -57 -35 -103 -43 -142 -25
-46 22 -63 63 -47 115 16 53 95 138 156 166 56 27 86 30 118 12z"/>
<path d="M575 1153 c-39 -20 -113 -91 -131 -125 -36 -69 0 -126 72 -115 51 8
87 34 78 55 -29 68 -1 117 65 117 38 0 41 2 41 27 0 55 -61 75 -125 41z"/>
<path d="M662 1004 c-23 -29 -38 -54 -34 -54 11 0 44 36 67 73 31 49 11 38
-33 -19z"/>
<path d="M956 1108 c-12 -17 -16 -49 -16 -130 l0 -108 35 0 34 0 3 78 3 77 33
-47 c38 -55 38 -58 12 -58 -15 0 -20 -7 -20 -25 0 -23 4 -25 44 -25 46 0 76
18 76 46 0 16 -116 194 -134 206 -21 15 -55 8 -70 -14z"/>
<path d="M1180 1010 c0 -143 -1 -142 123 -138 76 3 82 5 85 26 3 21 0 22 -67
22 l-71 0 0 35 0 35 60 0 c53 0 60 2 60 20 0 18 -7 20 -60 20 -57 0 -60 1 -60
25 0 24 2 25 70 25 68 0 70 1 70 25 l0 25 -105 0 -105 0 0 -120z"/>
<path d="M1410 1010 c0 -142 1 -142 113 -138 66 3 72 5 75 26 3 21 0 22 -57
22 l-61 0 0 105 0 105 -35 0 -35 0 0 -120z"/>
<path d="M1550 1106 c0 -21 5 -25 38 -28 l37 -3 3 -103 3 -103 27 3 27 3 3
103 3 102 39 0 c36 0 40 3 40 25 l0 25 -110 0 c-110 0 -110 0 -110 -24z"/>
<path d="M1827 1083 c-82 -115 -98 -144 -95 -171 3 -25 6 -27 61 -30 55 -3 57
-2 57 23 0 20 -5 25 -25 25 l-25 0 32 49 c18 28 35 50 38 50 3 1 4 -33 2 -74
l-4 -75 36 0 36 0 0 113 c0 122 -5 137 -51 137 -21 0 -35 -11 -62 -47z"/>
</g>
</svg>
