<?xml version="1.0" standalone="no"?>
<!DOCTYPE svg PUBLIC "-//W3C//DTD SVG 20010904//EN"
 "http://www.w3.org/TR/2001/REC-SVG-20010904/DTD/svg10.dtd">
<svg version="1.0" xmlns="http://www.w3.org/2000/svg"
 width="900.000000pt" height="600.000000pt" viewBox="0 0 900.000000 600.000000"
 preserveAspectRatio="xMidYMid meet">

<g transform="translate(0.000000,600.000000) scale(0.100000,-0.100000)"
fill="#000000" stroke="none">
<path d="M4455 3713 c-3 -10 -12 -27 -20 -37 -14 -18 -15 -18 -49 8 -45 34
-52 33 -27 -3 26 -36 26 -36 -1 -73 -20 -29 -20 -30 -1 -20 11 6 25 18 33 26
20 25 35 19 56 -19 10 -19 21 -35 25 -35 3 0 14 16 25 35 10 19 22 35 27 35 5
0 25 -12 45 -27 l36 -28 -23 33 -23 32 21 36 c21 36 18 36 -32 1 -27 -19 -29
-19 -42 -1 -8 11 -17 27 -20 37 -4 9 -10 17 -15 17 -5 0 -11 -8 -15 -17z"/>
<path d="M3260 3693 c-327 -6 -1118 -26 -1255 -33 -82 -3 409 -7 1093 -8 749
-1 1242 2 1242 7 0 42 13 41 -479 39 -256 -1 -527 -3 -601 -5z"/>
<path d="M4602 3683 c-6 -11 -8 -23 -5 -27 3 -3 562 -5 1242 -4 757 0 1172 4
1071 9 -317 15 -960 29 -1626 36 -668 6 -672 6 -682 -14z"/>
<path d="M2170 3619 c362 -14 1262 -29 1716 -29 394 0 443 2 448 16 3 9 6 18
6 20 0 2 -534 3 -1187 2 -766 -1 -1115 -4 -983 -9z"/>
<path d="M4600 3610 c10 -20 21 -20 453 -20 451 0 1334 15 1712 29 136 5 -210
8 -983 9 -1190 2 -1193 2 -1182 -18z"/>
<path d="M338 3287 c-86 -28 -139 -113 -141 -227 -1 -90 37 -169 141 -287 161
-183 192 -239 192 -343 0 -76 -21 -120 -69 -139 -96 -40 -198 59 -232 227 -7
34 -17 62 -21 62 -4 0 -8 -71 -8 -157 0 -86 3 -153 6 -150 4 4 12 17 18 29 16
32 40 33 78 5 81 -61 189 -58 266 9 55 47 75 103 70 196 -6 111 -48 190 -189
350 -77 88 -98 117 -125 173 -59 125 -1 267 99 241 63 -15 114 -85 137 -186
18 -80 19 -82 30 -75 13 8 13 262 0 270 -5 3 -10 2 -10 -2 0 -5 -6 -17 -13
-27 -13 -17 -16 -17 -64 8 -63 31 -117 39 -165 23z"/>
<path d="M2160 3278 c0 -4 15 -8 33 -10 l32 -3 3 -445 c1 -245 0 -460 -3 -479
-5 -25 -14 -36 -36 -44 -50 -19 -32 -27 60 -27 86 0 135 15 70 22 -20 2 -39
12 -51 28 -17 24 -18 49 -16 435 2 226 6 403 10 395 3 -8 20 -53 36 -100 17
-47 86 -242 153 -433 l124 -348 50 3 50 3 3 488 2 488 30 11 c51 17 34 23 -61
21 -101 -2 -120 -7 -60 -17 25 -4 44 -14 51 -26 7 -12 9 -150 8 -402 -3 -370
-4 -382 -20 -338 -9 25 -71 200 -138 390 -67 190 -126 356 -131 370 -9 24 -12
25 -104 25 -52 0 -95 -3 -95 -7z"/>
<path d="M5160 3280 c0 -3 15 -12 33 -20 l32 -15 3 -418 c2 -395 1 -421 -17
-462 -24 -55 -67 -79 -125 -72 -27 4 -49 15 -63 32 l-23 26 0 459 0 459 38 4
c20 2 -26 4 -103 4 -77 0 -123 -2 -102 -4 l37 -4 0 -410 c0 -270 4 -425 11
-455 16 -62 72 -121 131 -136 99 -25 204 25 228 110 6 23 10 196 10 445 0 394
1 408 20 427 11 11 27 20 35 20 8 0 15 3 15 8 0 4 -36 7 -80 7 -44 0 -80 -2
-80 -5z"/>
<path d="M710 2988 c0 -5 11 -8 25 -8 l25 0 0 -345 0 -345 -25 0 c-14 0 -25
-4 -25 -10 0 -6 35 -10 85 -10 50 0 85 4 85 10 0 6 -9 10 -20 10 -20 0 -20 5
-18 188 l3 187 68 3 67 3 0 -191 c0 -183 -1 -190 -20 -190 -11 0 -20 -4 -20
-10 0 -6 37 -10 90 -10 53 0 90 4 90 10 0 6 -11 10 -25 10 l-25 0 0 344 0 345
28 4 c15 2 -7 5 -48 6 l-75 1 3 -155 3 -156 -68 3 -68 3 -3 148 c-2 142 -2
147 18 147 11 0 20 3 20 8 0 4 -38 7 -85 7 -47 0 -85 -3 -85 -7z"/>
<path d="M945 2990 c-3 -5 -1 -10 4 -10 6 0 11 5 11 10 0 6 -2 10 -4 10 -3 0
-8 -4 -11 -10z"/>
<path d="M1180 2988 c0 -5 9 -8 20 -8 20 0 20 -7 20 -345 l0 -345 -25 0 c-14
0 -25 -4 -25 -10 0 -6 38 -10 95 -10 57 0 95 4 95 10 0 6 -11 10 -25 10 l-26
0 3 349 3 350 -68 3 c-37 2 -67 0 -67 -4z"/>
<path d="M2936 2768 c-102 -496 -97 -478 -137 -478 -11 0 -19 -4 -19 -10 0 -6
30 -10 70 -10 40 0 70 4 70 10 0 6 -11 10 -25 10 -34 0 -39 17 -25 87 22 115
12 104 87 101 76 -3 65 11 96 -125 l15 -63 -24 0 c-13 0 -24 -4 -24 -10 0 -6
37 -10 90 -10 53 0 90 4 90 10 0 6 -11 10 -24 10 -21 0 -25 6 -31 43 -6 34
-121 567 -140 645 -3 12 -9 22 -14 22 -4 0 -29 -105 -55 -232z m57 -129 c15
-78 26 -144 23 -146 -2 -2 -30 -3 -63 -1 l-60 3 25 130 c13 72 26 136 28 143
9 33 21 0 47 -129z"/>
<path d="M3805 2988 c-2 -7 -13 -58 -24 -113 -69 -343 -112 -543 -121 -562 -5
-13 -18 -23 -30 -23 -11 0 -20 -4 -20 -10 0 -6 30 -10 70 -10 68 0 98 15 43
22 -24 3 -28 8 -30 38 -2 19 3 60 10 90 l12 55 67 3 c75 3 69 10 88 -93 6 -33
14 -68 16 -77 4 -13 0 -18 -15 -18 -12 0 -21 -4 -21 -10 0 -6 37 -10 91 -10
57 0 88 4 84 10 -3 6 -15 10 -25 10 -13 0 -20 10 -25 33 -4 17 -35 158 -70
312 -35 154 -67 297 -70 318 -8 39 -22 57 -30 35z m5 -315 c13 -60 26 -125 30
-145 l7 -38 -65 0 -64 0 5 28 c3 15 16 80 28 145 13 64 26 117 30 117 3 0 17
-48 29 -107z"/>
<path d="M4060 2988 c0 -5 11 -8 25 -8 l25 0 0 -345 0 -345 -25 0 c-14 0 -25
-4 -25 -10 0 -6 37 -10 90 -10 53 0 90 4 90 10 0 6 -11 10 -25 10 l-25 0 2
183 3 182 28 3 c16 2 39 -3 52 -12 22 -14 23 -21 26 -163 3 -121 7 -154 22
-176 31 -48 104 -49 125 -2 16 35 15 44 -3 22 -7 -10 -22 -17 -32 -15 -16 3
-19 18 -23 144 -5 153 -17 188 -65 200 l-25 6 33 22 c17 12 40 37 49 56 33 65
19 177 -28 221 -24 22 -35 24 -160 29 -74 3 -134 2 -134 -2z m224 -30 c12 -17
16 -50 16 -139 0 -133 -10 -153 -72 -147 l-33 3 -3 153 -3 152 40 0 c30 0 44
-6 55 -22z"/>
<path d="M6913 2988 c-2 -5 7 -8 21 -8 l26 0 0 -345 0 -345 -25 0 c-14 0 -25
-4 -25 -10 0 -6 38 -10 95 -10 57 0 95 4 95 10 0 6 -11 10 -25 10 l-25 0 0
186 0 187 42 -6 c63 -8 68 -21 68 -179 0 -178 13 -208 90 -208 30 0 60 31 60
60 -1 12 -3 12 -11 -2 -13 -22 -45 -23 -53 -2 -3 9 -6 73 -6 144 0 124 -1 130
-26 159 -14 17 -36 31 -47 31 -17 1 -14 5 16 21 48 25 67 68 67 150 0 111 -43
161 -137 157 -37 -1 -40 -2 -15 -5 49 -6 62 -41 62 -166 0 -121 -14 -147 -76
-147 l-35 0 3 159 3 160 -68 3 c-38 2 -71 0 -74 -4z"/>
<path d="M7434 2981 c-43 -26 -69 -84 -68 -151 0 -73 18 -107 116 -220 89
-104 121 -163 122 -227 2 -108 -110 -140 -173 -48 -27 40 -50 100 -51 133 0
12 -3 22 -7 22 -5 0 -8 -49 -8 -109 l0 -110 20 25 c20 25 20 25 45 6 106 -81
250 -10 250 124 0 81 -41 158 -147 277 -68 76 -94 126 -96 182 -3 80 61 128
119 91 30 -20 61 -81 70 -135 12 -72 24 -44 24 54 0 52 -3 95 -6 95 -4 0 -12
-7 -18 -16 -11 -15 -15 -14 -47 5 -43 26 -104 27 -145 2z"/>
<path d="M7740 2988 c0 -5 9 -8 20 -8 20 0 20 -7 20 -345 0 -338 0 -345 -20
-345 -11 0 -20 -4 -20 -10 0 -6 37 -10 90 -10 53 0 90 4 90 10 0 6 -11 10 -25
10 l-25 0 0 344 0 345 28 3 c15 3 -15 6 -66 9 -50 2 -92 1 -92 -3z"/>
<path d="M8380 2988 c0 -5 11 -8 24 -8 21 0 27 -12 70 -157 26 -87 51 -168 57
-181 5 -13 9 -97 9 -187 0 -157 -1 -165 -19 -165 -11 0 -23 -4 -26 -10 -4 -6
28 -10 89 -10 57 0 96 4 96 10 0 6 -11 10 -25 10 l-25 0 0 155 c0 168 -4 146
77 400 30 95 43 122 62 131 21 11 18 12 -33 16 -31 1 -56 0 -56 -4 0 -5 9 -8
19 -8 10 0 21 -6 23 -12 5 -13 -83 -312 -94 -324 -4 -3 -19 34 -33 82 -15 49
-38 124 -51 167 -13 43 -24 80 -24 82 0 2 12 5 28 7 15 3 -17 6 -71 9 -53 2
-97 1 -97 -3z"/>
<path d="M1338 2983 c7 -3 16 -2 19 1 4 3 -2 6 -13 5 -11 0 -14 -3 -6 -6z"/>
<path d="M1410 2983 c26 -4 27 -11 105 -363 43 -198 82 -360 86 -360 3 0 9 12
12 28 4 15 35 167 70 337 35 171 69 320 75 332 7 12 22 24 34 26 13 2 -11 4
-52 4 -46 1 -63 -2 -45 -6 18 -4 31 -14 33 -25 2 -10 -15 -116 -38 -235 -46
-236 -48 -246 -55 -239 -4 4 -105 472 -105 488 0 5 10 11 23 13 12 2 -21 4
-73 4 -52 0 -84 -2 -70 -4z"/>
<path d="M3258 2983 l22 -4 0 -345 0 -344 -25 0 c-14 0 -25 -5 -25 -11 0 -8
35 -10 118 -7 101 3 123 7 149 26 63 44 84 133 82 337 -1 157 -11 231 -40 287
-29 58 -59 68 -191 67 -62 -1 -103 -4 -90 -6z m198 -11 c30 -20 34 -55 34
-329 0 -245 -2 -282 -18 -313 -15 -31 -22 -35 -59 -38 l-43 -3 0 345 0 346 38
0 c20 0 42 -4 48 -8z"/>
<path d="M5403 2983 l27 -4 -2 -337 -3 -337 -22 -10 c-39 -17 -25 -25 42 -25
37 0 65 4 65 10 0 6 -11 10 -25 10 -18 0 -28 7 -35 26 -13 32 -13 592 -1 579
5 -6 54 -138 110 -295 130 -365 115 -332 154 -328 l32 3 5 349 c5 337 6 349
25 357 13 5 -4 7 -45 7 -36 0 -56 -3 -45 -5 45 -11 45 -12 45 -302 0 -159 -4
-270 -9 -261 -8 14 -164 450 -191 533 l-12 37 -71 -1 c-40 -1 -60 -4 -44 -6z"/>
<path d="M5873 2983 l27 -4 0 -345 0 -344 -25 0 c-14 0 -25 -4 -25 -10 0 -6
37 -10 90 -10 53 0 90 4 90 10 0 6 -9 10 -20 10 -20 0 -20 7 -20 344 l0 345
23 4 c12 2 -21 4 -73 4 -52 0 -83 -2 -67 -4z"/>
<path d="M6110 2968 c5 -13 41 -169 80 -348 74 -340 84 -376 94 -350 5 13 50
231 118 570 22 110 30 127 63 140 13 6 -4 8 -50 8 -38 -1 -58 -3 -43 -5 15 -2
29 -12 32 -21 3 -10 -10 -94 -30 -187 -19 -94 -40 -196 -46 -227 -5 -32 -13
-58 -17 -58 -4 0 -17 48 -30 108 -12 59 -35 168 -50 242 -16 74 -27 138 -25
142 3 5 -20 8 -50 8 -54 0 -55 -1 -46 -22z"/>
<path d="M6228 2983 c7 -3 16 -2 19 1 4 3 -2 6 -13 5 -11 0 -14 -3 -6 -6z"/>
<path d="M6543 2983 l27 -4 0 -345 0 -344 -25 0 c-14 0 -25 -4 -25 -10 0 -6
62 -10 165 -10 l165 0 0 98 -1 97 -23 -70 c-29 -85 -52 -105 -117 -105 l-49 0
0 180 0 180 39 0 c47 0 81 -35 81 -81 0 -16 3 -29 8 -29 8 0 6 219 -3 228 -3
3 -5 -10 -5 -30 0 -44 -25 -68 -79 -75 l-41 -6 0 162 0 161 55 0 c47 0 60 -4
79 -25 13 -14 29 -46 35 -70 6 -25 13 -45 16 -45 3 0 5 34 5 75 l0 75 -167 -1
c-93 -1 -156 -4 -140 -6z"/>
<path d="M7978 2900 c-2 -50 0 -90 5 -90 4 0 7 10 7 23 0 71 50 147 96 147
l24 0 0 -345 c0 -338 0 -345 -20 -345 -11 0 -20 -4 -20 -10 0 -6 37 -10 90
-10 53 0 90 4 90 10 0 6 -11 10 -25 10 l-25 0 0 345 0 345 23 0 c49 0 82 -40
102 -125 l13 -50 1 93 1 92 -179 0 -180 0 -3 -90z"/>
</g>
</svg>
