<?xml version="1.0" standalone="no"?>
<!DOCTYPE svg PUBLIC "-//W3C//DTD SVG 20010904//EN"
 "http://www.w3.org/TR/2001/REC-SVG-20010904/DTD/svg10.dtd">
<svg version="1.0" xmlns="http://www.w3.org/2000/svg"
 width="225.000000pt" height="225.000000pt" viewBox="0 0 225.000000 225.000000"
 preserveAspectRatio="xMidYMid meet">

<g transform="translate(0.000000,225.000000) scale(0.100000,-0.100000)"
fill="#000000" stroke="none">
<path d="M1907 1299 c-9 -32 -18 -62 -18 -66 0 -5 -5 -13 -10 -20 -7 -7 -6
-13 0 -18 11 -6 22 14 39 70 l9 30 13 -40 c7 -22 20 -50 28 -62 8 -13 12 -23
9 -23 -3 0 1 -16 9 -36 8 -20 13 -38 10 -41 -3 -3 -37 -11 -75 -17 -53 -9 -71
-9 -71 -1 0 7 3 15 7 19 11 11 32 79 27 88 -11 18 -23 6 -30 -29 -3 -21 -13
-48 -20 -60 -11 -18 -12 -23 -2 -24 7 -1 2 -4 -12 -8 -18 -5 -24 -13 -22 -29
2 -11 -4 -35 -13 -52 -9 -17 -14 -37 -12 -43 3 -7 18 17 35 52 26 54 36 65 59
67 37 4 93 14 115 20 17 5 35 -22 44 -65 1 -8 10 -21 18 -30 25 -24 36 -1 18
39 -24 56 -23 59 24 66 24 3 47 10 50 16 5 7 -21 5 -61 -7 -19 -5 -55 14 -55
30 0 8 -5 15 -11 15 -5 0 -7 5 -4 10 4 6 -7 39 -23 74 -17 35 -33 78 -37 95
-10 48 -19 44 -38 -20z"/>
<path d="M110 1205 c0 -21 5 -25 30 -25 l30 0 0 -70 c0 -68 1 -70 25 -70 24 0
25 2 25 70 0 68 1 70 25 70 20 0 25 5 25 25 0 25 -1 25 -80 25 -79 0 -80 0
-80 -25z"/>
<path d="M300 1135 l0 -95 80 0 c73 0 80 2 80 19 0 17 -8 20 -52 23 -70 4 -78
28 -9 28 44 0 51 3 51 20 0 17 -7 20 -44 20 -25 0 -48 5 -51 11 -10 15 -5 18
47 20 40 2 47 6 51 26 4 22 2 23 -74 23 l-79 0 0 -95z"/>
<path d="M526 1147 c-16 -45 -31 -88 -34 -94 -2 -8 5 -13 21 -13 14 0 27 7 31
15 3 9 19 15 41 15 24 0 35 -4 35 -15 0 -9 9 -15 25 -15 14 0 25 3 25 7 0 4
-14 47 -31 95 -29 80 -34 88 -58 88 -24 0 -29 -8 -55 -83z m73 -34 c1 -7 -8
-13 -19 -13 -17 0 -19 4 -14 28 10 43 18 49 25 22 4 -14 7 -31 8 -37z"/>
<path d="M713 1206 c-23 -20 -28 -32 -28 -69 0 -63 32 -97 91 -97 44 0 84 27
84 57 0 18 -47 16 -54 -3 -4 -10 -15 -14 -33 -12 -24 3 -28 8 -31 41 -2 21 2
45 9 53 15 18 48 18 55 -1 7 -19 54 -20 54 -2 0 8 -10 23 -23 35 -32 30 -87
29 -124 -2z"/>
<path d="M895 1135 l0 -95 28 0 c25 0 27 3 27 40 0 38 2 40 30 40 28 0 30 -2
30 -40 0 -36 3 -40 25 -40 25 0 25 0 25 95 0 95 0 95 -25 95 -22 0 -25 -4 -25
-35 0 -32 -2 -35 -30 -35 -28 0 -30 3 -30 35 0 32 -3 35 -27 35 l-28 0 0 -95z"/>
<path d="M1190 1135 l0 -95 30 0 30 0 0 95 0 95 -30 0 -30 0 0 -95z"/>
<path d="M1280 1135 c0 -94 0 -95 24 -95 23 0 25 4 28 53 l3 52 29 -52 c25
-45 34 -53 58 -53 l28 0 0 95 c0 94 0 95 -24 95 -23 0 -25 -4 -28 -52 l-3 -53
-28 53 c-24 45 -31 52 -57 52 l-30 0 0 -95z"/>
<path d="M1480 1135 l0 -95 64 0 c54 0 70 4 93 24 23 20 28 32 28 71 0 39 -5
51 -28 71 -23 20 -39 24 -93 24 l-64 0 0 -95z m118 33 c29 -29 7 -78 -35 -78
-21 0 -23 5 -23 45 0 40 2 45 23 45 13 0 28 -5 35 -12z"/>
<path d="M1700 1135 c0 -95 0 -95 25 -95 25 0 25 0 25 95 0 95 0 95 -25 95
-25 0 -25 0 -25 -95z"/>
<path d="M560 935 c0 -19 5 -35 10 -35 6 0 10 16 10 35 0 19 -4 35 -10 35 -5
0 -10 -16 -10 -35z"/>
<path d="M623 935 c0 -22 2 -30 4 -17 2 12 2 30 0 40 -3 9 -5 -1 -4 -23z"/>
<path d="M664 935 c1 -19 4 -35 8 -35 5 0 8 16 8 35 0 19 -4 35 -8 35 -5 0 -8
-16 -8 -35z"/>
<path d="M708 935 c-2 -19 0 -35 4 -35 4 0 8 16 8 35 0 19 -2 35 -4 35 -2 0
-6 -16 -8 -35z"/>
<path d="M830 935 c0 -19 5 -35 10 -35 6 0 10 16 10 35 0 19 -4 35 -10 35 -5
0 -10 -16 -10 -35z"/>
<path d="M890 935 c0 -19 3 -35 8 -35 4 0 7 16 7 35 0 19 -3 35 -7 35 -5 0 -8
-16 -8 -35z"/>
<path d="M934 961 c3 -4 10 -21 16 -36 6 -15 13 -26 15 -23 8 8 -16 68 -27 68
-5 0 -7 -4 -4 -9z"/>
<path d="M993 935 c0 -22 2 -30 4 -17 2 12 2 30 0 40 -3 9 -5 -1 -4 -23z"/>
<path d="M1030 937 c0 -20 4 -37 9 -37 4 0 7 14 5 32 -6 45 -14 48 -14 5z"/>
<path d="M1100 956 c0 -8 9 -18 20 -21 11 -3 20 -14 20 -23 0 -13 2 -14 13 -3
10 10 8 15 -8 26 -11 8 -26 19 -32 25 -10 8 -13 7 -13 -4z"/>
<path d="M1205 949 c-4 -13 -2 -27 6 -35 12 -11 14 -8 14 21 0 39 -10 46 -20
14z"/>
<path d="M1264 935 c0 -19 4 -31 8 -29 4 3 8 16 8 29 0 13 -4 26 -8 29 -4 2
-8 -10 -8 -29z"/>
<path d="M1300 935 c0 -19 3 -35 8 -35 4 0 7 16 7 35 0 19 -3 35 -7 35 -5 0
-8 -16 -8 -35z"/>
<path d="M1408 935 c-2 -19 0 -35 4 -35 4 0 8 16 8 35 0 19 -2 35 -4 35 -2 0
-6 -16 -8 -35z"/>
<path d="M1450 969 c0 -3 11 -20 25 -39 14 -19 25 -27 25 -19 0 9 -11 26 -25
39 -14 13 -25 21 -25 19z"/>
<path d="M1533 935 c0 -22 2 -30 4 -17 2 12 2 30 0 40 -3 9 -5 -1 -4 -23z"/>
<path d="M1575 935 c0 -18 3 -31 8 -28 4 2 7 15 7 28 0 13 -3 26 -7 28 -5 3
-8 -10 -8 -28z"/>
<path d="M1610 935 c0 -19 5 -35 10 -35 6 0 10 16 10 35 0 19 -4 35 -10 35 -5
0 -10 -16 -10 -35z"/>
<path d="M1675 953 c4 -10 10 -26 12 -35 3 -10 10 -18 15 -18 6 0 7 8 3 18 -4
9 -10 25 -12 35 -3 9 -10 17 -15 17 -6 0 -7 -8 -3 -17z"/>
</g>
</svg>
